<svg width="17" height="19" viewBox="0 0 17 19" fill="none" xmlns="http://www.w3.org/2000/svg">
<path d="M0.455357 7.125H16.5446C16.7951 7.125 17 7.32539 17 7.57031V17.2188C17 18.2021 16.1842 19 15.1786 19H1.82143C0.815848 19 0 18.2021 0 17.2188V7.57031C0 7.32539 0.204911 7.125 0.455357 7.125ZM17 5.49219V4.15625C17 3.17285 16.1842 2.375 15.1786 2.375H13.3571V0.445312C13.3571 0.200391 13.1522 0 12.9018 0H11.3839C11.1335 0 10.9286 0.200391 10.9286 0.445312V2.375H6.07143V0.445312C6.07143 0.200391 5.86652 0 5.61607 0H4.09821C3.84777 0 3.64286 0.200391 3.64286 0.445312V2.375H1.82143C0.815848 2.375 0 3.17285 0 4.15625V5.49219C0 5.73711 0.204911 5.9375 0.455357 5.9375H16.5446C16.7951 5.9375 17 5.73711 17 5.49219Z" fill="black" fill-opacity="0.3"/>
</svg>
