<svg width="20" height="20" viewBox="0 0 20 20" fill="none" xmlns="http://www.w3.org/2000/svg">
<path d="M17.8226 14.3335C17.8226 14.6917 17.6803 15.0353 17.427 15.2886C17.1737 15.5419 16.8302 15.6842 16.4719 15.6842H4.3161C3.95789 15.6842 3.61435 15.5419 3.36105 15.2886C3.10775 15.0353 2.96545 14.6917 2.96545 14.3335V6.90494C2.96545 6.54673 3.10775 6.20319 3.36105 5.94989C3.61435 5.69659 3.95789 5.55429 4.3161 5.55429H7.0174L8.36805 3.52832H12.42L13.7706 5.55429H16.4719C16.8302 5.55429 17.1737 5.69659 17.427 5.94989C17.6803 6.20319 17.8226 6.54673 17.8226 6.90494V14.3335Z" stroke="#2934D0" stroke-width="2" stroke-linecap="round" stroke-linejoin="round"/>
<path d="M10.394 12.9829C11.8859 12.9829 13.0953 11.7735 13.0953 10.2816C13.0953 8.78968 11.8859 7.58027 10.394 7.58027C8.90214 7.58027 7.69273 8.78968 7.69273 10.2816C7.69273 11.7735 8.90214 12.9829 10.394 12.9829Z" stroke="#2934D0" stroke-width="2" stroke-linecap="round" stroke-linejoin="round"/>
</svg>
