<svg width="22" height="22" viewBox="0 0 22 22" fill="none" xmlns="http://www.w3.org/2000/svg">
<path d="M3.09375 6.875C3.54959 6.875 3.98676 6.69392 4.30909 6.37159C4.63142 6.04926 4.8125 5.61209 4.8125 5.15625C4.8125 4.70041 4.63142 4.26324 4.30909 3.94091C3.98676 3.61858 3.54959 3.4375 3.09375 3.4375C2.63791 3.4375 2.20074 3.61858 1.87841 3.94091C1.55608 4.26324 1.375 4.70041 1.375 5.15625C1.375 5.61209 1.55608 6.04926 1.87841 6.37159C2.20074 6.69392 2.63791 6.875 3.09375 6.875ZM3.09375 12.7188C3.54959 12.7188 3.98676 12.5377 4.30909 12.2153C4.63142 11.893 4.8125 11.4558 4.8125 11C4.8125 10.5442 4.63142 10.107 4.30909 9.78466C3.98676 9.46233 3.54959 9.28125 3.09375 9.28125C2.63791 9.28125 2.20074 9.46233 1.87841 9.78466C1.55608 10.107 1.375 10.5442 1.375 11C1.375 11.4558 1.55608 11.893 1.87841 12.2153C2.20074 12.5377 2.63791 12.7188 3.09375 12.7188ZM9.625 16.8438C9.625 17.2996 9.44392 17.7368 9.12159 18.0591C8.79926 18.3814 8.36209 18.5625 7.90625 18.5625C7.45041 18.5625 7.01324 18.3814 6.69091 18.0591C6.36858 17.7368 6.1875 17.2996 6.1875 16.8438C6.1875 16.3879 6.36858 15.9507 6.69091 15.6284C7.01324 15.3061 7.45041 15.125 7.90625 15.125C8.36209 15.125 8.79926 15.3061 9.12159 15.6284C9.44392 15.9507 9.625 16.3879 9.625 16.8438ZM7.90625 4.125C7.63275 4.125 7.37044 4.23365 7.17705 4.42705C6.98365 4.62044 6.875 4.88275 6.875 5.15625C6.875 5.42975 6.98365 5.69206 7.17705 5.88545C7.37044 6.07885 7.63275 6.1875 7.90625 6.1875H19.5938C19.8673 6.1875 20.1296 6.07885 20.323 5.88545C20.5163 5.69206 20.625 5.42975 20.625 5.15625C20.625 4.88275 20.5163 4.62044 20.323 4.42705C20.1296 4.23365 19.8673 4.125 19.5938 4.125H7.90625ZM6.875 11C6.875 10.7265 6.98365 10.4642 7.17705 10.2708C7.37044 10.0774 7.63275 9.96875 7.90625 9.96875H19.5938C19.8673 9.96875 20.1296 10.0774 20.323 10.2708C20.5163 10.4642 20.625 10.7265 20.625 11C20.625 11.2735 20.5163 11.5358 20.323 11.7292C20.1296 11.9226 19.8673 12.0312 19.5938 12.0312H7.90625C7.63275 12.0312 7.37044 11.9226 7.17705 11.7292C6.98365 11.5358 6.875 11.2735 6.875 11ZM12.7188 15.8125C12.4452 15.8125 12.1829 15.9212 11.9895 16.1145C11.7962 16.3079 11.6875 16.5702 11.6875 16.8438C11.6875 17.1173 11.7962 17.3796 11.9895 17.573C12.1829 17.7663 12.4452 17.875 12.7188 17.875H19.5938C19.8673 17.875 20.1296 17.7663 20.323 17.573C20.5163 17.3796 20.625 17.1173 20.625 16.8438C20.625 16.5702 20.5163 16.3079 20.323 16.1145C20.1296 15.9212 19.8673 15.8125 19.5938 15.8125H12.7188Z" fill="black" fill-opacity="0.3"/>
</svg>
