<svg width="23" height="23" viewBox="0 0 23 23" fill="none" xmlns="http://www.w3.org/2000/svg">
<path d="M18.2083 2.87498H14.2025C13.8 1.76331 12.7458 0.958313 11.5 0.958313C10.2542 0.958313 9.2 1.76331 8.7975 2.87498H4.79167C3.7375 2.87498 2.875 3.73748 2.875 4.79165V18.2083C2.875 19.2625 3.7375 20.125 4.79167 20.125H18.2083C19.2625 20.125 20.125 19.2625 20.125 18.2083V4.79165C20.125 3.73748 19.2625 2.87498 18.2083 2.87498ZM11.5 2.6354C11.8929 2.6354 12.2188 2.96123 12.2188 3.35415C12.2188 3.74706 11.8929 4.0729 11.5 4.0729C11.1071 4.0729 10.7812 3.74706 10.7812 3.35415C10.7812 2.96123 11.1071 2.6354 11.5 2.6354ZM8.52917 16.2916H7.1875C6.91917 16.2916 6.70833 16.0808 6.70833 15.8125V14.4421C6.70833 14.3175 6.75625 14.1929 6.85208 14.1066L12.42 8.53873L14.4517 10.5704L8.86458 16.1575C8.77456 16.2443 8.65419 16.2924 8.52917 16.2916ZM16.1479 8.88373L15.1321 9.89956L13.1004 7.8679L14.1162 6.85206C14.3079 6.6604 14.605 6.6604 14.7967 6.85206L16.1479 8.20331C16.3396 8.39498 16.3396 8.69206 16.1479 8.88373Z" fill="black" fill-opacity="0.3"/>
</svg>
