<svg width="17" height="20" viewBox="0 0 17 20" fill="none" xmlns="http://www.w3.org/2000/svg">
<path d="M0.455357 7.125H16.5446C16.7951 7.125 17 7.32539 17 7.57031V17.2188C17 18.2021 16.1842 19 15.1786 19H1.82143C0.815848 19 0 18.2021 0 17.2188V7.57031C0 7.32539 0.204911 7.125 0.455357 7.125ZM17 5.49219V4.15625C17 3.17285 16.1842 2.375 15.1786 2.375H13.3571V0.445312C13.3571 0.200391 13.1522 0 12.9018 0H11.3839C11.1335 0 10.9286 0.200391 10.9286 0.445312V2.375H6.07143V0.445312C6.07143 0.200391 5.86652 0 5.61607 0H4.09821C3.84777 0 3.64286 0.200391 3.64286 0.445312V2.375H1.82143C0.815848 2.375 0 3.17285 0 4.15625V5.49219C0 5.73711 0.204911 5.9375 0.455357 5.9375H16.5446C16.7951 5.9375 17 5.73711 17 5.49219Z" fill="black" fill-opacity="0.3"/>
<path d="M10.0078 11.5938C10.0078 11.8516 9.95573 12.0755 9.85156 12.2656C9.7474 12.4557 9.60417 12.612 9.42188 12.7344C9.24219 12.8542 9.03385 12.9401 8.79688 12.9922V13.0195C9.2526 13.0768 9.59635 13.2201 9.82812 13.4492C10.0625 13.6784 10.1797 13.9818 10.1797 14.3594C10.1797 14.6901 10.1003 14.9857 9.94141 15.2461C9.78255 15.5039 9.53906 15.707 9.21094 15.8555C8.88281 16.0039 8.46094 16.0781 7.94531 16.0781C7.63542 16.0781 7.34766 16.0534 7.08203 16.0039C6.81901 15.9544 6.56901 15.875 6.33203 15.7656V14.9492C6.57422 15.069 6.83203 15.1615 7.10547 15.2266C7.37891 15.2917 7.63802 15.3242 7.88281 15.3242C8.35938 15.3242 8.69922 15.2357 8.90234 15.0586C9.10547 14.8789 9.20703 14.6315 9.20703 14.3164C9.20703 14.1133 9.15365 13.9466 9.04688 13.8164C8.94271 13.6862 8.77995 13.5885 8.55859 13.5234C8.33984 13.4583 8.05729 13.4258 7.71094 13.4258H7.20703V12.6875H7.71484C8.04557 12.6875 8.3112 12.6484 8.51172 12.5703C8.71224 12.4896 8.85677 12.3789 8.94531 12.2383C9.03646 12.0977 9.08203 11.9336 9.08203 11.7461C9.08203 11.5013 9.0026 11.3112 8.84375 11.1758C8.6849 11.0378 8.44922 10.9688 8.13672 10.9688C7.94401 10.9688 7.76823 10.9909 7.60938 11.0352C7.45312 11.0794 7.30859 11.1354 7.17578 11.2031C7.04297 11.2708 6.91667 11.3438 6.79688 11.4219L6.35547 10.7852C6.57161 10.6237 6.82943 10.487 7.12891 10.375C7.42839 10.263 7.77734 10.207 8.17578 10.207C8.76172 10.207 9.21354 10.3333 9.53125 10.5859C9.84896 10.8359 10.0078 11.1719 10.0078 11.5938Z" fill="white"/>
</svg>
