<svg width="17" height="17" viewBox="0 0 17 17" fill="none" xmlns="http://www.w3.org/2000/svg">
<path d="M8.5 0C13.1946 0 17 3.80545 17 8.5C17 13.1946 13.1946 17 8.5 17C3.80545 17 0 13.1946 0 8.5C0 3.80545 3.80545 0 8.5 0ZM7.7095 4.74385C7.55215 4.74385 7.40124 4.80636 7.28997 4.91762C7.17871 5.02889 7.1162 5.1798 7.1162 5.33715V10.081C7.1162 10.4091 7.3814 10.6743 7.7095 10.6743H12.4534C12.5331 10.6773 12.6126 10.6642 12.6872 10.6358C12.7618 10.6074 12.8298 10.5642 12.8873 10.5088C12.9448 10.4535 12.9905 10.3871 13.0218 10.3136C13.053 10.2402 13.0691 10.1612 13.0691 10.0814C13.0691 10.0016 13.053 9.92264 13.0218 9.8492C12.9905 9.77577 12.9448 9.70939 12.8873 9.65403C12.8298 9.59868 12.7618 9.5555 12.6872 9.52706C12.6126 9.49863 12.5331 9.48553 12.4534 9.48855H8.30195V5.33715C8.30195 5.17994 8.23956 5.02916 8.12848 4.91792C8.0174 4.80668 7.86671 4.74408 7.7095 4.74385Z" fill="black" fill-opacity="0.3"/>
</svg>
